<?xml version="1.0" standalone="no"?>
<!DOCTYPE svg PUBLIC "-//W3C//DTD SVG 20010904//EN"
 "http://www.w3.org/TR/2001/REC-SVG-20010904/DTD/svg10.dtd">
<svg width="46" height="46" xmlns="http://www.w3.org/2000/svg" preserveAspectRatio="xMidYMid meet">
 <g>
  <title>Icon</title>
  <g transform="translate(0,138) scale(0.10000000149011612,-0.10000000149011612) " fill="#000000">
   <path d="m0.745313,1255.316406c-2.602456,-4.913086 -0.650615,-13.335693 5.204919,-18.950806c7.807375,-8.422729 12.361673,-9.12439 23.422117,-2.105591c7.807381,4.211304 13.012295,11.932007 11.711063,16.143311c-3.253071,11.230103 -34.482563,14.739502 -40.338099,4.913086z"/>
   <path d="m8.552689,1208.290283c-7.15676,-7.018799 -5.204913,-141.078613 1.301231,-145.289917c3.253072,-2.807495 10.40983,-2.105591 16.26536,0c14.964132,6.317017 14.964132,122.82959 0,138.973022c-11.711058,12.633789 -11.711058,12.633789 -17.566591,6.316895z"/>
   <path d="m79.469673,1198.463867c-16.265366,-21.056519 -24.072742,-53.34314 -19.518444,-82.822266c5.204922,-32.988525 14.313526,-46.324219 41.639339,-58.256226c19.518433,-8.422607 26.024582,-9.124512 44.241768,-0.701904c22.120911,9.826416 27.97641,28.075317 11.060455,34.392212c-5.20491,2.807495 -14.313522,0.701904 -18.867828,-3.509399c-11.711052,-11.230103 -41.639313,-2.807495 -49.446686,13.335938c-10.409851,21.056396 -7.156754,53.342896 7.156769,72.99585c16.265358,21.758423 27.97641,23.161987 42.940552,4.211182c13.012283,-16.143311 22.12088,-17.546997 33.18132,-5.61499c5.855545,6.317017 4.554306,11.932007 -6.506119,24.565796c-19.518463,22.460449 -68.314529,23.162231 -85.881126,1.403809z"/>
   <path d="m206.339508,1195.656494c-9.759232,-9.826538 -13.012283,-19.652832 -9.759232,-25.267944c2.602448,-4.913208 4.554306,-30.180908 3.903702,-56.852661c-1.301254,-34.392212 0.650604,-47.727905 6.506134,-47.727905c4.554291,0 16.915955,-4.913208 27.32579,-10.52832c13.012329,-7.720703 21.470291,-8.422607 26.024612,-3.509399c3.253052,3.509399 11.060425,7.018799 16.915955,7.018799c5.85553,0 16.915985,7.720825 24.723358,17.547119c20.819672,25.969604 20.169037,82.120361 -2.602448,113.7052c-14.313538,20.354614 -19.518433,23.162109 -46.844254,22.460205c-22.7715,0 -34.482574,-4.211304 -46.193619,-16.845093zm73.51944,-25.267944c21.470245,-26.671509 21.470245,-51.237549 0.650604,-72.99585c-17.566589,-19.652588 -21.470276,-20.354614 -44.241776,-11.230225c-29.277664,11.932007 -26.024582,85.629883 4.55426,98.965576c20.169083,9.124634 20.819687,9.124634 39.036911,-14.739502z"/>
   <path d="m377.451141,1205.482666c-1.951904,-4.211182 -10.409882,-5.61499 -18.867889,-3.509277c-18.867798,4.913086 -20.819641,-0.701904 -22.12085,-71.592163c-1.301239,-66.678955 1.301208,-74.399658 18.867798,-64.573242c11.060455,6.316895 12.361694,12.633789 8.458008,39.305542c-4.554321,36.497803 13.012299,87.033447 30.578827,87.033447c24.723358,0 31.880096,-15.441406 33.832001,-73.697754c1.951843,-50.535645 3.253052,-56.150757 14.964111,-56.150757c11.711121,0 13.012299,5.615112 14.964142,56.852539c1.301239,48.430054 0,58.958252 -11.71106,75.101685c-11.060455,14.73938 -19.518372,18.950806 -39.036835,18.950806c-13.662903,0 -27.325867,-3.509399 -29.928253,-7.720825z"/>
  </g>
 </g>
</svg>
