<?xml version="1.0" standalone="no"?>
<!DOCTYPE svg PUBLIC "-//W3C//DTD SVG 20010904//EN"
 "http://www.w3.org/TR/2001/REC-SVG-20010904/DTD/svg10.dtd">
<svg version="1.0" xmlns="http://www.w3.org/2000/svg"
 width="868.000000pt" height="1280.000000pt" viewBox="0 0 868.000000 1280.000000"
 preserveAspectRatio="xMidYMid meet">
<g transform="translate(0.000000,1280.000000) scale(0.100000,-0.100000)"
fill="#000000" stroke="none">
<path d="M3925 12725 c-287 -41 -522 -119 -762 -256 -133 -75 -199 -120 -308
-211 -421 -351 -698 -830 -795 -1373 -89 -499 -15 -1019 210 -1467 72 -144
123 -225 217 -351 l74 -99 -42 -61 c-23 -34 -184 -273 -357 -532 -173 -258
-402 -598 -507 -755 -105 -157 -353 -526 -550 -820 -197 -294 -409 -610 -471
-701 -179 -266 -187 -283 -260 -549 -40 -144 -46 -182 -51 -295 -8 -193 18
-285 113 -393 81 -92 171 -122 363 -122 117 0 217 21 314 64 152 67 369 227
531 391 87 89 277 318 352 425 166 240 316 476 444 705 40 72 88 155 105 187
18 31 36 66 40 77 3 12 10 21 16 21 5 0 10 -1108 12 -2813 l2 -2812 22 -75
c56 -198 134 -324 257 -417 115 -86 222 -123 430 -148 186 -21 285 -7 418 62
139 73 239 206 300 406 l23 72 3 1763 2 1762 248 -2 247 -3 5 -1765 c5 -1653
7 -1769 24 -1830 72 -263 236 -411 515 -464 250 -48 475 -20 600 73 139 104
212 243 256 486 13 69 15 478 15 2898 0 1549 4 2817 8 2817 8 0 172 -271 367
-610 65 -113 146 -252 180 -310 33 -58 106 -183 161 -279 l99 -173 155 -130
c234 -196 387 -293 554 -351 81 -28 103 -31 206 -32 110 0 118 1 183 33 82 40
130 89 180 181 63 116 80 256 56 469 -14 137 -76 437 -99 486 -11 23 -74 120
-140 216 -66 96 -519 774 -1007 1505 -487 732 -903 1355 -924 1387 -22 31 -39
60 -39 64 0 4 24 44 54 88 194 294 320 621 372 971 24 165 24 495 1 660 -73
498 -293 950 -635 1299 -325 331 -712 537 -1161 618 -152 27 -480 34 -626 13z
m456 -15 c484 -48 914 -247 1268 -585 270 -258 493 -624 594 -975 71 -244 98
-432 98 -678 1 -252 -31 -465 -102 -697 -62 -199 -179 -445 -286 -598 -29 -43
-56 -84 -59 -91 -3 -8 195 -316 441 -685 245 -369 448 -678 451 -686 6 -13
-273 -15 -2515 -15 -1401 0 -2521 4 -2521 9 0 4 12 26 26 47 15 21 196 291
402 599 206 308 385 571 397 584 l23 23 -73 93 c-256 328 -423 750 -466 1179
-15 149 -7 462 16 606 58 372 226 759 459 1055 341 435 835 727 1351 799 190
27 337 31 496 16z"/>
</g>
</svg>
