<?xml version="1.0" standalone="no"?>
<!DOCTYPE svg PUBLIC "-//W3C//DTD SVG 20010904//EN"
 "http://www.w3.org/TR/2001/REC-SVG-20010904/DTD/svg10.dtd">
<svg version="1.0" xmlns="http://www.w3.org/2000/svg"
 width="808.000000pt" height="1280.000000pt" viewBox="0 0 808.000000 1280.000000"
 preserveAspectRatio="xMidYMid meet">
<g transform="translate(0.000000,1280.000000) scale(0.100000,-0.100000)"
fill="#000000" stroke="none">
<path d="M3970 12014 c-252 -31 -445 -90 -657 -200 -210 -108 -394 -246 -618
-463 -166 -161 -249 -271 -344 -456 -88 -170 -143 -341 -186 -580 -23 -122
-31 -444 -15 -588 35 -324 124 -674 258 -1007 44 -111 168 -375 190 -407 49
-71 41 -66 -108 74 -36 34 -74 70 -86 80 -25 21 -793 733 -874 809 l-54 52 53
229 c201 858 311 1488 298 1703 -14 219 -104 412 -221 472 -56 28 -150 21
-226 -17 -103 -52 -229 -163 -245 -216 -4 -13 -42 -114 -85 -224 -43 -110 -95
-243 -115 -295 -20 -52 -61 -156 -90 -230 -28 -74 -86 -223 -128 -330 -42
-107 -106 -271 -143 -365 -36 -93 -79 -204 -94 -245 -15 -41 -72 -185 -125
-320 -59 -147 -105 -281 -116 -335 -46 -219 0 -458 125 -653 35 -55 79 -94
306 -276 146 -117 303 -244 350 -282 47 -39 236 -191 420 -339 343 -276 602
-484 885 -712 l160 -130 5 -3024 5 -3024 48 -77 c126 -200 280 -340 437 -394
54 -19 97 -25 214 -30 132 -5 153 -4 219 16 212 64 361 220 458 483 l29 78 0
1490 0 1489 170 0 170 0 0 -302 c0 -167 0 -824 0 -1461 0 -1281 -2 -1233 65
-1390 59 -139 168 -258 286 -311 113 -52 169 -61 372 -59 250 3 322 22 445
116 100 76 203 237 244 383 l23 79 5 2986 5 2986 140 133 c356 338 771 735
885 844 178 172 307 295 530 506 279 264 349 336 402 415 168 250 211 554 123
860 -14 50 -131 335 -259 635 -128 300 -314 733 -412 964 l-179 419 -70 54
c-108 85 -255 153 -330 153 -179 0 -266 -178 -266 -541 0 -389 107 -940 322
-1654 39 -132 72 -245 73 -251 1 -12 -474 -509 -907 -949 l-108 -110 79 155
c137 266 230 507 296 761 140 540 136 971 -14 1429 -45 139 -177 396 -273 532
-97 138 -232 294 -327 378 -97 86 -300 219 -432 283 -195 95 -365 151 -553
183 -88 15 -366 26 -435 18z m271 -24 c245 -18 447 -75 694 -195 208 -101 345
-195 488 -334 343 -334 544 -715 633 -1201 23 -121 26 -560 6 -685 -49 -298
-121 -558 -225 -812 -71 -172 -191 -409 -274 -540 -37 -59 -39 -63 -19 -63 7
0 31 19 51 43 21 23 110 116 199 207 150 154 622 642 800 827 62 65 78 87 74
105 -3 13 -22 77 -42 143 -105 341 -142 475 -216 790 -100 425 -134 666 -135
950 0 225 14 320 64 415 71 139 206 150 399 32 34 -20 83 -54 110 -75 47 -38
50 -44 206 -410 88 -205 201 -471 253 -592 52 -121 110 -256 128 -300 18 -44
89 -211 158 -371 170 -394 191 -471 191 -679 -1 -182 -35 -317 -117 -465 -72
-130 -70 -128 -892 -910 -226 -215 -306 -292 -425 -406 -69 -66 -172 -165
-230 -220 -58 -54 -159 -151 -225 -215 -66 -63 -148 -142 -182 -174 l-63 -58
0 -1834 0 -1833 -690 0 -690 0 -2 333 -3 332 -190 0 -190 0 -3 -332 -2 -333
-680 0 -680 0 -1 1798 c-1 988 -3 1807 -4 1819 -3 28 21 7 -360 313 -181 145
-427 343 -545 438 -118 96 -231 186 -250 202 -19 15 -62 49 -95 76 -229 185
-468 378 -637 512 -209 167 -245 207 -307 342 -53 114 -75 219 -74 355 1 149
16 207 118 466 42 107 110 280 150 384 40 105 108 278 150 385 42 107 109 281
150 385 40 105 103 267 140 360 36 94 100 258 141 365 71 186 77 197 127 244
67 64 155 120 219 142 171 56 299 -81 354 -380 19 -104 15 -183 -22 -441 -45
-315 -158 -875 -275 -1365 -21 -91 -41 -175 -44 -186 -6 -26 -33 0 619 -605
664 -617 646 -600 657 -594 11 8 10 10 -56 100 -74 102 -80 112 -146 257 -185
402 -303 795 -350 1168 -20 149 -17 488 5 615 75 443 218 738 490 1011 213
212 348 321 550 441 129 77 201 110 346 163 161 58 276 79 530 98 8 1 72 -3
141 -8z"/>
</g>
</svg>
