<?xml version="1.0" standalone="no"?>
<!DOCTYPE svg PUBLIC "-//W3C//DTD SVG 20010904//EN"
 "http://www.w3.org/TR/2001/REC-SVG-20010904/DTD/svg10.dtd">
<svg version="1.0" xmlns="http://www.w3.org/2000/svg"
 width="802.000000pt" height="1280.000000pt" viewBox="0 0 802.000000 1280.000000"
 preserveAspectRatio="xMidYMid meet">
<g transform="translate(0.000000,1280.000000) scale(0.100000,-0.100000)"
fill="#000000" stroke="none">
<path d="M3892 12730 c-862 -69 -1613 -734 -1877 -1660 -68 -240 -98 -453 -98
-700 -1 -359 87 -621 382 -1144 56 -99 101 -183 101 -188 0 -4 -7 -8 -14 -8
-47 0 -291 -152 -521 -326 -267 -201 -827 -678 -1185 -1010 -41 -38 -108 -100
-150 -138 -41 -39 -125 -120 -186 -180 -139 -138 -157 -177 -157 -331 0 -114
15 -181 74 -330 45 -115 83 -165 197 -255 42 -34 84 -67 93 -74 131 -106 644
-417 974 -591 61 -32 160 -86 220 -121 148 -84 249 -118 335 -112 81 6 161 40
200 84 l30 34 3 -2317 3 -2318 21 -90 c82 -341 216 -495 488 -565 114 -29 408
-29 514 0 142 40 250 113 346 232 66 83 143 236 182 363 l28 90 3 1477 2 1478
225 0 226 0 -1 -1530 -1 -1529 28 -83 c16 -46 50 -115 75 -153 57 -88 183
-208 245 -236 27 -11 62 -26 78 -34 17 -7 71 -23 120 -36 75 -20 114 -24 230
-24 127 1 147 3 215 28 140 51 255 146 347 286 64 96 121 222 152 332 l21 75
0 2244 0 2243 23 -21 c65 -61 161 -76 289 -43 124 32 202 79 443 268 125 98
239 187 254 198 45 34 521 405 611 478 47 37 108 79 136 93 81 39 139 96 179
177 58 120 70 180 69 372 0 188 2 183 -81 313 -224 351 -671 751 -1328 1189
-146 97 -423 268 -562 346 l-101 57 50 107 c369 782 354 1709 -38 2453 -398
753 -1140 1191 -1912 1130z m326 -31 c626 -68 1167 -435 1513 -1026 224 -384
334 -782 346 -1258 6 -249 -10 -442 -53 -650 -47 -223 -132 -465 -223 -642
l-39 -74 22 -23 c11 -12 93 -65 181 -116 901 -528 1577 -1093 1827 -1530 l43
-74 3 -136 c8 -296 -62 -470 -221 -551 -32 -17 -114 -74 -182 -127 -210 -166
-326 -256 -360 -282 -18 -14 -109 -84 -201 -157 -459 -359 -516 -401 -584
-432 -194 -90 -338 -81 -415 26 -16 23 -33 42 -37 42 -5 1 -8 -64 -8 -144 l0
-145 -1745 0 -1745 0 -2 167 c-2 100 -7 167 -13 169 -5 1 -24 -16 -40 -39 -17
-23 -52 -55 -79 -72 -46 -28 -56 -30 -145 -29 -103 0 -148 14 -256 77 -27 17
-138 77 -245 135 -591 317 -995 576 -1164 746 -63 63 -75 82 -108 166 -52 135
-67 193 -75 287 -7 98 12 186 55 250 25 36 172 178 472 453 63 58 142 130 175
161 143 133 594 518 790 675 318 254 602 440 717 469 25 6 25 8 -83 195 -386
673 -459 997 -358 1592 92 545 373 1054 772 1403 424 371 955 550 1465 494z
m159 -11631 c-2 -13 -4 -5 -4 17 -1 22 1 32 4 23 2 -10 2 -28 0 -40z"/>
<path d="M5830 7110 c0 -407 3 -740 8 -740 4 0 191 184 417 410 l409 409 -29
23 c-17 13 -136 109 -265 213 -427 345 -527 425 -533 425 -4 0 -7 -333 -7
-740z m99 648 c36 -29 71 -57 77 -63 6 -6 132 -108 280 -227 148 -119 286
-231 307 -250 l38 -33 -386 -387 c-212 -214 -388 -388 -390 -388 -3 0 -5 315
-5 700 0 385 3 700 6 700 3 0 36 -24 73 -52z"/>
<path d="M2189 7658 c-74 -79 -138 -148 -144 -154 -5 -6 -100 -107 -210 -223
-110 -117 -200 -219 -200 -225 0 -7 156 -172 348 -366 l347 -354 0 732 c0 403
-2 732 -4 732 -2 0 -64 -64 -137 -142z m131 -588 c0 -374 -4 -680 -8 -680 -7
0 -242 235 -569 570 l-93 95 38 40 c100 108 504 538 556 593 33 34 63 62 68
62 4 0 8 -306 8 -680z"/>
</g>
</svg>
